ffmpeg started on 2025-06-04 at 21:20:43
Report written to "D:\Convert\FFMetrics\reports\psnr_report-6.txt"
Log level: 32
Command line:
ffmpeg -hide_banner -nostdin -i "G:\\\xc0\xed\xe8\xec\xe5\\\xce\xed\xe3\xee\xe8\xed\xe3\xe8\\!_36_\xce\xf1\xe5\xed\xfc_2024\\DreamCast\\\xc5\xf1\xeb\xe8 \xe1\xfb \xec\xee\xff \xe6\xe5\xed\xe0 \xf1\xf2\xe0\xeb\xe0 \xec\xeb\xe0\xe4\xf8\xe5\xea\xeb\xe0\xf1\xf1\xed\xe8\xf6\xe5\xe9\\[DC] Tsuma Shougakusei ni Naru - 06_Telegram_HEVC.mkv" -i "G:\\\xc0\xed\xe8\xec\xe5\\\xce\xed\xe3\xee\xe8\xed\xe3\xe8\\!_36_\xce\xf1\xe5\xed\xfc_2024\\DreamCast\\\xc5\xf1\xeb\xe8 \xe1\xfb \xec\xee\xff \xe6\xe5\xed\xe0 \xf1\xf2\xe0\xeb\xe0 \xec\xeb\xe0\xe4\xf8\xe5\xea\xeb\xe0\xf1\xf1\xed\xe8\xf6\xe5\xe9\\[DC] Tsuma Shougakusei ni Naru - 06_Telegram.mp4" -lavfi "[0:v]settb=AVTB,setpts=PTS-STARTPTS,format=pix_fmts=yuv420p10,fps=24000/1001,scale=1920:1080:flags=bicubic[main];[1:v]settb=AVTB,setpts=PTS-STARTPTS,format=pix_fmts=yuv420p,fps=24000/1001,scale=1920:1080:flags=bicubic[ref];[main][ref]psnr=eof_action=endall:stats_file='D\\:/Convert/FFMetrics/logs/psnr_logfile-6.txt'" -f null -
Input #0, matroska,webm, from 'G:\Аниме\Онгоинги\!_36_Осень_2024\DreamCast\Если бы моя жена стала младшеклассницей\[DC] Tsuma Shougakusei ni Naru - 06_Telegram_HEVC.mkv':
  Metadata:
    COMPATIBLE_BRANDS: isomiso2avc1mp41
    MAJOR_BRAND     : isom
    MINOR_VERSION   : 512
    ENCODER         : Lavf61.7.100
  Duration: 00:23:46.65, start: -0.021000, bitrate: 855 kb/s
  Stream #0:0: Video: hevc (Main 10), yuv420p10le(tv, bt709, progressive), 1920x1080 [SAR 1:1 DAR 16:9], 23.98 fps, 23.98 tbr, 1k tbn (default)
      Metadata:
        HANDLER_NAME    : VideoHandler
        VENDOR_ID       : [0][0][0][0]
        ENCODER         : Lavc61.19.100 libx265
        BPS             : 658554
        DURATION        : 00:23:46.549708333
        NUMBER_OF_FRAMES: 34203
        NUMBER_OF_BYTES : 117432568
        _STATISTICS_WRITING_APP: mkvpropedit v66.0.0 ('Josie') 64-bit
        _STATISTICS_WRITING_DATE_UTC: 2025-05-30 15:18:27
        _STATISTICS_TAGS: BPS DURATION NUMBER_OF_FRAMES NUMBER_OF_BYTES
  Stream #0:1: Audio: aac (LC), 48000 Hz, stereo, fltp (default)
      Metadata:
        HANDLER_NAME    : SoundHandler
        VENDOR_ID       : [0][0][0][0]
        ENCODER         : Lavc61.19.100 aac
        BPS             : 193196
        DURATION        : 00:23:46.645000000
        NUMBER_OF_FRAMES: 66875
        NUMBER_OF_BYTES : 34452854
        _STATISTICS_WRITING_APP: mkvpropedit v66.0.0 ('Josie') 64-bit
        _STATISTICS_WRITING_DATE_UTC: 2025-05-30 15:18:27
        _STATISTICS_TAGS: BPS DURATION NUMBER_OF_FRAMES NUMBER_OF_BYTES
Input #1, mov,mp4,m4a,3gp,3g2,mj2, from 'G:\Аниме\Онгоинги\!_36_Осень_2024\DreamCast\Если бы моя жена стала младшеклассницей\[DC] Tsuma Shougakusei ni Naru - 06_Telegram.mp4':
  Metadata:
    major_brand     : isom
    minor_version   : 512
    compatible_brands: isomiso2avc1mp41
    encoder         : Lavf61.1.100
  Duration: 00:23:46.62, start: 0.000000, bitrate: 3374 kb/s
  Stream #1:0[0x1](und): Video: h264 (High) (avc1 / 0x31637661), yuv420p(tv, bt709, progressive), 1920x1080 [SAR 1:1 DAR 16:9], 3227 kb/s, 23.98 fps, 23.98 tbr, 24k tbn (default)
      Metadata:
        handler_name    : VideoHandler
        vendor_id       : [0][0][0][0]
        encoder         : Lavc61.3.100 h264_qsv
  Stream #1:1[0x2](und): Audio: aac (HE-AACv2) (mp4a / 0x6134706D), 48000 Hz, stereo, fltp, 144 kb/s (default)
      Metadata:
        handler_name    : SoundHandler
        vendor_id       : [0][0][0][0]
Stream mapping:
  Stream #0:0 (hevc) -> settb:default
  Stream #1:0 (h264) -> settb:default
  psnr:default -> Stream #0:0 (wrapped_avframe)
  Stream #0:1 -> #0:1 (aac (native) -> pcm_s16le (native))
Output #0, null, to 'pipe:':
  Metadata:
    COMPATIBLE_BRANDS: isomiso2avc1mp41
    MAJOR_BRAND     : isom
    MINOR_VERSION   : 512
    encoder         : Lavf61.7.100
  Stream #0:0: Video: wrapped_avframe, yuv420p10le(tv, bt709, progressive), 1920x1080 [SAR 1:1 DAR 16:9], q=2-31, 200 kb/s, 23.98 fps, 23.98 tbn
      Metadata:
        encoder         : Lavc61.19.100 wrapped_avframe
  Stream #0:1: Audio: pcm_s16le, 48000 Hz, stereo, s16, 1536 kb/s (default)
      Metadata:
        HANDLER_NAME    : SoundHandler
        VENDOR_ID       : [0][0][0][0]
        _STATISTICS_TAGS: BPS DURATION NUMBER_OF_FRAMES NUMBER_OF_BYTES
        BPS             : 193196
        DURATION        : 00:23:46.645000000
        NUMBER_OF_FRAMES: 66875
        NUMBER_OF_BYTES : 34452854
        _STATISTICS_WRITING_APP: mkvpropedit v66.0.0 ('Josie') 64-bit
        _STATISTICS_WRITING_DATE_UTC: 2025-05-30 15:18:27
        encoder         : Lavc61.19.100 pcm_s16le
frame=  176 fps=0.0 q=-0.0 size=N/A time=00:00:07.34 bitrate=N/A speed=14.2x    frame=  355 fps=346 q=-0.0 size=N/A time=00:00:14.80 bitrate=N/A speed=14.4x    frame=  498 fps=322 q=-0.0 size=N/A time=00:00:20.77 bitrate=N/A speed=13.4x    frame=  634 fps=308 q=-0.0 size=N/A time=00:00:26.44 bitrate=N/A speed=12.9x    frame=  832 fps=323 q=-0.0 size=N/A time=00:00:34.70 bitrate=N/A speed=13.5x    frame= 1066 fps=345 q=-0.0 size=N/A time=00:00:44.46 bitrate=N/A speed=14.4x    frame= 1288 fps=357 q=-0.0 size=N/A time=00:00:53.72 bitrate=N/A speed=14.9x    frame= 1462 fps=354 q=-0.0 size=N/A time=00:01:00.97 bitrate=N/A speed=14.8x    frame= 1631 fps=352 q=-0.0 size=N/A time=00:01:08.02 bitrate=N/A speed=14.7x    frame= 1850 fps=359 q=-0.0 size=N/A time=00:01:17.16 bitrate=N/A speed=  15x    frame= 2003 fps=353 q=-0.0 size=N/A time=00:01:23.54 bitrate=N/A speed=14.7x    frame= 2153 fps=348 q=-0.0 size=N/A time=00:01:29.79 bitrate=N/A speed=14.5x    frame= 2350 fps=351 q=-0.0 size=N/A time=00:01:38.01 bitrate=N/A speed=14.6x    frame= 2596 fps=360 q=-0.0 size=N/A time=00:01:48.27 bitrate=N/A speed=  15x    frame= 2866 fps=371 q=-0.0 size=N/A time=00:01:59.53 bitrate=N/A speed=15.5x    frame= 3157 fps=382 q=-0.0 size=N/A time=00:02:11.67 bitrate=N/A speed=15.9x    frame= 3445 fps=392 q=-0.0 size=N/A time=00:02:23.68 bitrate=N/A speed=16.4x    frame= 3719 fps=400 q=-0.0 size=N/A time=00:02:35.11 bitrate=N/A speed=16.7x    frame= 3994 fps=407 q=-0.0 size=N/A time=00:02:46.58 bitrate=N/A speed=  17x    frame= 4255 fps=412 q=-0.0 size=N/A time=00:02:57.46 bitrate=N/A speed=17.2x    frame= 4530 fps=418 q=-0.0 size=N/A time=00:03:08.93 bitrate=N/A speed=17.4x    frame= 4805 fps=423 q=-0.0 size=N/A time=00:03:20.40 bitrate=N/A speed=17.7x    frame= 5097 fps=429 q=-0.0 size=N/A time=00:03:32.58 bitrate=N/A speed=17.9x    frame= 5384 fps=434 q=-0.0 size=N/A time=00:03:44.55 bitrate=N/A speed=18.1x    frame= 5670 fps=439 q=-0.0 size=N/A time=00:03:56.48 bitrate=N/A speed=18.3x    frame= 5944 fps=443 q=-0.0 size=N/A time=00:04:07.91 bitrate=N/A speed=18.5x    frame= 6234 fps=447 q=-0.0 size=N/A time=00:04:20.00 bitrate=N/A speed=18.6x    frame= 6517 fps=451 q=-0.0 size=N/A time=00:04:31.81 bitrate=N/A speed=18.8x    frame= 6787 fps=453 q=-0.0 size=N/A time=00:04:43.07 bitrate=N/A speed=18.9x    frame= 7056 fps=455 q=-0.0 size=N/A time=00:04:54.29 bitrate=N/A speed=  19x    frame= 7330 fps=458 q=-0.0 size=N/A time=00:05:05.72 bitrate=N/A speed=19.1x    frame= 7606 fps=460 q=-0.0 size=N/A time=00:05:17.23 bitrate=N/A speed=19.2x    frame= 7881 fps=462 q=-0.0 size=N/A time=00:05:28.70 bitrate=N/A speed=19.3x    frame= 8164 fps=465 q=-0.0 size=N/A time=00:05:40.50 bitrate=N/A speed=19.4x    frame= 8437 fps=467 q=-0.0 size=N/A time=00:05:51.89 bitrate=N/A speed=19.5x    frame= 8699 fps=468 q=-0.0 size=N/A time=00:06:02.82 bitrate=N/A speed=19.5x    frame= 8952 fps=469 q=-0.0 size=N/A time=00:06:13.37 bitrate=N/A speed=19.5x    frame= 9222 fps=470 q=-0.0 size=N/A time=00:06:24.63 bitrate=N/A speed=19.6x    frame= 9469 fps=470 q=-0.0 size=N/A time=00:06:34.93 bitrate=N/A speed=19.6x    frame= 9749 fps=472 q=-0.0 size=N/A time=00:06:46.61 bitrate=N/A speed=19.7x    frame=10024 fps=474 q=-0.0 size=N/A time=00:06:58.08 bitrate=N/A speed=19.8x    frame=10290 fps=474 q=-0.0 size=N/A time=00:07:09.17 bitrate=N/A speed=19.8x    frame=10555 fps=475 q=-0.0 size=N/A time=00:07:20.23 bitrate=N/A speed=19.8x    frame=10830 fps=477 q=-0.0 size=N/A time=00:07:31.70 bitrate=N/A speed=19.9x    frame=11107 fps=478 q=-0.0 size=N/A time=00:07:43.25 bitrate=N/A speed=19.9x    frame=11370 fps=479 q=-0.0 size=N/A time=00:07:54.26 bitrate=N/A speed=  20x    frame=11635 fps=480 q=-0.0 size=N/A time=00:08:05.27 bitrate=N/A speed=  20x    frame=11893 fps=480 q=-0.0 size=N/A time=00:08:16.03 bitrate=N/A speed=  20x    frame=12179 fps=482 q=-0.0 size=N/A time=00:08:27.96 bitrate=N/A speed=20.1x    frame=12448 fps=482 q=-0.0 size=N/A time=00:08:39.18 bitrate=N/A speed=20.1x    frame=12713 fps=483 q=-0.0 size=N/A time=00:08:50.23 bitrate=N/A speed=20.1x    frame=12989 fps=484 q=-0.0 size=N/A time=00:09:01.74 bitrate=N/A speed=20.2x    frame=13263 fps=485 q=-0.0 size=N/A time=00:09:13.17 bitrate=N/A speed=20.2x    frame=13541 fps=486 q=-0.0 size=N/A time=00:09:24.77 bitrate=N/A speed=20.3x    frame=13812 fps=487 q=-0.0 size=N/A time=00:09:36.07 bitrate=N/A speed=20.3x    frame=14103 fps=488 q=-0.0 size=N/A time=00:09:48.21 bitrate=N/A speed=20.3x    frame=14380 fps=489 q=-0.0 size=N/A time=00:09:59.76 bitrate=N/A speed=20.4x    frame=14669 fps=490 q=-0.0 size=N/A time=00:10:11.81 bitrate=N/A speed=20.4x    frame=14950 fps=491 q=-0.0 size=N/A time=00:10:23.53 bitrate=N/A speed=20.5x    frame=15187 fps=490 q=-0.0 size=N/A time=00:10:33.42 bitrate=N/A speed=20.4x    frame=15441 fps=490 q=-0.0 size=N/A time=00:10:44.01 bitrate=N/A speed=20.4x    frame=15732 fps=491 q=-0.0 size=N/A time=00:10:56.15 bitrate=N/A speed=20.5x    frame=15997 fps=492 q=-0.0 size=N/A time=00:11:07.20 bitrate=N/A speed=20.5x    frame=16284 fps=493 q=-0.0 size=N/A time=00:11:19.17 bitrate=N/A speed=20.5x    frame=16553 fps=493 q=-0.0 size=N/A time=00:11:30.39 bitrate=N/A speed=20.6x    frame=16844 fps=494 q=-0.0 size=N/A time=00:11:42.53 bitrate=N/A speed=20.6x    frame=17113 fps=495 q=-0.0 size=N/A time=00:11:53.75 bitrate=N/A speed=20.6x    frame=17346 fps=494 q=-0.0 size=N/A time=00:12:03.47 bitrate=N/A speed=20.6x    frame=17595 fps=494 q=-0.0 size=N/A time=00:12:13.85 bitrate=N/A speed=20.6x    frame=17839 fps=493 q=-0.0 size=N/A time=00:12:24.03 bitrate=N/A speed=20.6x    frame=18078 fps=493 q=-0.0 size=N/A time=00:12:34.00 bitrate=N/A speed=20.6x    frame=18317 fps=493 q=-0.0 size=N/A time=00:12:43.97 bitrate=N/A speed=20.5x    frame=18554 fps=492 q=-0.0 size=N/A time=00:12:53.85 bitrate=N/A speed=20.5x    frame=18814 fps=492 q=-0.0 size=N/A time=00:13:04.70 bitrate=N/A speed=20.5x    frame=19066 fps=492 q=-0.0 size=N/A time=00:13:15.21 bitrate=N/A speed=20.5x    frame=19315 fps=492 q=-0.0 size=N/A time=00:13:25.59 bitrate=N/A speed=20.5x    frame=19586 fps=493 q=-0.0 size=N/A time=00:13:36.89 bitrate=N/A speed=20.5x    frame=19856 fps=493 q=-0.0 size=N/A time=00:13:48.16 bitrate=N/A speed=20.6x    frame=20124 fps=493 q=-0.0 size=N/A time=00:13:59.33 bitrate=N/A speed=20.6x    frame=20381 fps=493 q=-0.0 size=N/A time=00:14:10.05 bitrate=N/A speed=20.6x    frame=20607 fps=493 q=-0.0 size=N/A time=00:14:19.48 bitrate=N/A speed=20.5x    frame=20834 fps=492 q=-0.0 size=N/A time=00:14:28.95 bitrate=N/A speed=20.5x    frame=21079 fps=492 q=-0.0 size=N/A time=00:14:39.16 bitrate=N/A speed=20.5x    frame=21324 fps=492 q=-0.0 size=N/A time=00:14:49.38 bitrate=N/A speed=20.5x    frame=21598 fps=492 q=-0.0 size=N/A time=00:15:00.81 bitrate=N/A speed=20.5x    frame=21850 fps=492 q=-0.0 size=N/A time=00:15:11.32 bitrate=N/A speed=20.5x    frame=22092 fps=492 q=-0.0 size=N/A time=00:15:21.42 bitrate=N/A speed=20.5x    frame=22324 fps=491 q=-0.0 size=N/A time=00:15:31.09 bitrate=N/A speed=20.5x    frame=22578 fps=491 q=-0.0 size=N/A time=00:15:41.69 bitrate=N/A speed=20.5x    frame=22860 fps=492 q=-0.0 size=N/A time=00:15:53.45 bitrate=N/A speed=20.5x    frame=23140 fps=492 q=-0.0 size=N/A time=00:16:05.13 bitrate=N/A speed=20.5x    frame=23403 fps=493 q=-0.0 size=N/A time=00:16:16.10 bitrate=N/A speed=20.5x    frame=23677 fps=493 q=-0.0 size=N/A time=00:16:27.52 bitrate=N/A speed=20.6x    frame=23966 fps=494 q=-0.0 size=N/A time=00:16:39.58 bitrate=N/A speed=20.6x    frame=24250 fps=494 q=-0.0 size=N/A time=00:16:51.42 bitrate=N/A speed=20.6x    frame=24531 fps=495 q=-0.0 size=N/A time=00:17:03.14 bitrate=N/A speed=20.6x    frame=24816 fps=495 q=-0.0 size=N/A time=00:17:15.03 bitrate=N/A speed=20.7x    frame=25095 fps=496 q=-0.0 size=N/A time=00:17:26.67 bitrate=N/A speed=20.7x    frame=25384 fps=497 q=-0.0 size=N/A time=00:17:38.72 bitrate=N/A speed=20.7x    frame=25634 fps=496 q=-0.0 size=N/A time=00:17:49.15 bitrate=N/A speed=20.7x    frame=25907 fps=497 q=-0.0 size=N/A time=00:18:00.53 bitrate=N/A speed=20.7x    frame=26192 fps=497 q=-0.0 size=N/A time=00:18:12.42 bitrate=N/A speed=20.7x    frame=26487 fps=498 q=-0.0 size=N/A time=00:18:24.72 bitrate=N/A speed=20.8x    frame=26766 fps=498 q=-0.0 size=N/A time=00:18:36.36 bitrate=N/A speed=20.8x    frame=27063 fps=499 q=-0.0 size=N/A time=00:18:48.75 bitrate=N/A speed=20.8x    frame=27355 fps=500 q=-0.0 size=N/A time=00:19:00.93 bitrate=N/A speed=20.8x    frame=27612 fps=500 q=-0.0 size=N/A time=00:19:11.65 bitrate=N/A speed=20.8x    frame=27895 fps=500 q=-0.0 size=N/A time=00:19:23.45 bitrate=N/A speed=20.9x    frame=28182 fps=501 q=-0.0 size=N/A time=00:19:35.42 bitrate=N/A speed=20.9x    frame=28455 fps=501 q=-0.0 size=N/A time=00:19:46.81 bitrate=N/A speed=20.9x    frame=28754 fps=502 q=-0.0 size=N/A time=00:19:59.28 bitrate=N/A speed=20.9x    frame=29017 fps=502 q=-0.0 size=N/A time=00:20:10.25 bitrate=N/A speed=20.9x    frame=29294 fps=502 q=-0.0 size=N/A time=00:20:21.80 bitrate=N/A speed=20.9x    frame=29573 fps=502 q=-0.0 size=N/A time=00:20:33.44 bitrate=N/A speed=  21x    frame=29853 fps=503 q=-0.0 size=N/A time=00:20:45.11 bitrate=N/A speed=  21x    frame=30129 fps=503 q=-0.0 size=N/A time=00:20:56.63 bitrate=N/A speed=  21x    frame=30394 fps=503 q=-0.0 size=N/A time=00:21:07.68 bitrate=N/A speed=  21x    frame=30677 fps=504 q=-0.0 size=N/A time=00:21:19.48 bitrate=N/A speed=  21x    frame=30974 fps=504 q=-0.0 size=N/A time=00:21:31.87 bitrate=N/A speed=  21x    frame=31254 fps=504 q=-0.0 size=N/A time=00:21:43.55 bitrate=N/A speed=  21x    frame=31550 fps=505 q=-0.0 size=N/A time=00:21:55.89 bitrate=N/A speed=21.1x    frame=31823 fps=505 q=-0.0 size=N/A time=00:22:07.28 bitrate=N/A speed=21.1x    frame=32099 fps=505 q=-0.0 size=N/A time=00:22:18.79 bitrate=N/A speed=21.1x    frame=32348 fps=505 q=-0.0 size=N/A time=00:22:29.18 bitrate=N/A speed=21.1x    frame=32616 fps=505 q=-0.0 size=N/A time=00:22:40.35 bitrate=N/A speed=21.1x    frame=32853 fps=505 q=-0.0 size=N/A time=00:22:50.24 bitrate=N/A speed=21.1x    frame=33118 fps=505 q=-0.0 size=N/A time=00:23:01.29 bitrate=N/A speed=21.1x    frame=33301 fps=504 q=-0.0 size=N/A time=00:23:08.92 bitrate=N/A speed=  21x    frame=33457 fps=502 q=-0.0 size=N/A time=00:23:15.43 bitrate=N/A speed=20.9x    frame=33601 fps=501 q=-0.0 size=N/A time=00:23:21.44 bitrate=N/A speed=20.9x    frame=33750 fps=499 q=-0.0 size=N/A time=00:23:27.65 bitrate=N/A speed=20.8x    frame=33951 fps=498 q=-0.0 size=N/A time=00:23:36.03 bitrate=N/A speed=20.8x    frame=34192 fps=498 q=-0.0 size=N/A time=00:23:46.09 bitrate=N/A speed=20.8x    [Parsed_psnr_10 @ 0000026efbeafe40] PSNR y:49.689432 u:52.167256 v:52.261726 average:50.379706 min:39.542591 max:inf
[out#0/null @ 0000026efad14100] video:14697KiB audio:267500KiB subtitle:0KiB other streams:0KiB global headers:0KiB muxing overhead: unknown
frame=34203 fps=498 q=-0.0 Lsize=N/A time=00:23:46.55 bitrate=N/A speed=20.8x    
